<svg height="278pt" viewBox="0 0 278 278" width="278pt" xmlns="http://www.w3.org/2000/svg"><path d="m278 40v198c0 22.089844-17.910156 40-40 40h-198c-22.089844 0-40-17.910156-40-40v-198c0-22.089844 17.910156-40 40-40h198c22.089844 0 40 17.910156 40 40zm-52.121094 33.839844c0-11.996094-9.722656-21.71875-21.71875-21.71875s-21.71875 9.722656-21.71875 21.71875 9.722656 21.71875 21.71875 21.71875c11.992188-.003906 21.714844-9.722656 21.71875-21.71875zm0 130.320312c0-11.996094-9.722656-21.71875-21.71875-21.71875s-21.71875 9.722656-21.71875 21.71875 9.722656 21.71875 21.71875 21.71875 21.71875-9.722656 21.71875-21.71875zm-65.160156-65.160156c0-11.996094-9.722656-21.71875-21.71875-21.71875s-21.71875 9.722656-21.71875 21.71875 9.722656 21.71875 21.71875 21.71875c11.992188-.003906 21.714844-9.726562 21.71875-21.71875zm-65.160156-65.160156c0-11.996094-9.722656-21.71875-21.71875-21.71875s-21.71875 9.722656-21.71875 21.71875 9.722656 21.71875 21.71875 21.71875 21.71875-9.722656 21.71875-21.71875zm0 130.320312c0-11.996094-9.722656-21.71875-21.71875-21.71875s-21.71875 9.722656-21.71875 21.71875 9.722656 21.71875 21.71875 21.71875c11.996094.003906 21.722656-9.722656 21.71875-21.71875zm0 0" fill="#e48e66"/><path d="m125 0h-85c-22.089844 0-40 17.910156-40 40v198c0 22.089844 17.910156 40 40 40h85zm0 0" fill="#d18162"/><g fill="#f8ec7d"><path d="m225.878906 73.839844c0 11.996094-9.722656 21.71875-21.71875 21.71875s-21.71875-9.722656-21.71875-21.71875 9.722656-21.71875 21.71875-21.71875 21.71875 9.722656 21.71875 21.71875zm0 0"/><path d="m225.878906 204.160156c0 11.996094-9.722656 21.71875-21.71875 21.71875s-21.71875-9.722656-21.71875-21.71875 9.722656-21.71875 21.71875-21.71875 21.71875 9.722656 21.71875 21.71875zm0 0"/><path d="m160.71875 139c0 11.996094-9.722656 21.71875-21.71875 21.71875s-21.71875-9.722656-21.71875-21.71875 9.722656-21.71875 21.71875-21.71875 21.71875 9.722656 21.71875 21.71875zm0 0"/><path d="m95.558594 73.839844c0 11.996094-9.722656 21.71875-21.71875 21.71875s-21.71875-9.722656-21.71875-21.71875 9.722656-21.71875 21.71875-21.71875 21.71875 9.722656 21.71875 21.71875zm0 0"/><path d="m95.558594 204.160156c0 11.996094-9.722656 21.71875-21.71875 21.71875s-21.71875-9.722656-21.71875-21.71875 9.722656-21.71875 21.71875-21.71875 21.71875 9.722656 21.71875 21.71875zm0 0"/></g></svg>