<?xml version="1.0" encoding="UTF-8" standalone="no"?>
<svg
   xmlns:dc="http://purl.org/dc/elements/1.1/"
   xmlns:cc="http://creativecommons.org/ns#"
   xmlns:rdf="http://www.w3.org/1999/02/22-rdf-syntax-ns#"
   xmlns:svg="http://www.w3.org/2000/svg"
   xmlns="http://www.w3.org/2000/svg"
   xmlns:sodipodi="http://sodipodi.sourceforge.net/DTD/sodipodi-0.dtd"
   xmlns:inkscape="http://www.inkscape.org/namespaces/inkscape"
   height="192pt"
   viewBox="0 0 192 192"
   width="192pt"
   version="1.1"
   id="svg4"
   sodipodi:docname="film.svg"
   inkscape:export-filename="/home/scintill/Desktop/wedding-website/images/film.png"
   inkscape:export-xdpi="187.5"
   inkscape:export-ydpi="187.5"
   inkscape:version="0.92.3 (2405546, 2018-03-11)">
  <metadata
     id="metadata10">
    <rdf:RDF>
      <cc:Work
         rdf:about="">
        <dc:format>image/svg+xml</dc:format>
        <dc:type
           rdf:resource="http://purl.org/dc/dcmitype/StillImage" />
      </cc:Work>
    </rdf:RDF>
  </metadata>
  <defs
     id="defs8" />
  <sodipodi:namedview
     pagecolor="#ffffff"
     bordercolor="#666666"
     borderopacity="1"
     objecttolerance="10"
     gridtolerance="10"
     guidetolerance="10"
     inkscape:pageopacity="0"
     inkscape:pageshadow="2"
     inkscape:window-width="1920"
     inkscape:window-height="1028"
     id="namedview6"
     showgrid="false"
     inkscape:zoom="0.921875"
     inkscape:cx="137.76271"
     inkscape:cy="128"
     inkscape:window-x="0"
     inkscape:window-y="382"
     inkscape:window-maximized="1"
     inkscape:current-layer="svg4" />
  <path
     d="m192 96c0-53.019531-42.980469-96-96-96s-96 42.980469-96 96 42.980469 96 96 96h96v-16h-43c26.839844-17.769531 42.988281-47.808594 43-80zm-48.976562 64.722656c-10.722657 7.789063-25.734376 5.414063-33.523438-5.3125-7.789062-10.722656-5.414062-25.730468 5.308594-33.523437 10.726562-7.789063 25.734375-5.414063 33.523437 5.3125 7.792969 10.722656 5.414063 25.730469-5.308593 33.523437zm-1.179688-104.851562c12.605469-4.097656 26.144531 2.800781 30.242188 15.40625 4.09375 12.609375-2.804688 26.148437-15.410157 30.242187-12.605469 4.097657-26.144531-2.800781-30.242187-15.40625-4.09375-12.605469 2.804687-26.148437 15.410156-30.242187zm-45.84375-39.871094c13.253906 0 24 10.746094 24 24s-10.746094 24-24 24-24-10.746094-24-24 10.746094-24 24-24zm-76.085938 55.277344c4.097657-12.605469 17.636719-19.503906 30.242188-15.410156 12.605469 4.097656 19.503906 17.636718 15.410156 30.242187-4.097656 12.605469-17.636718 19.503906-30.242187 15.410156s-19.503907-17.632812-15.410157-30.242187zm62.585938 84.132812c-7.789062 10.726563-22.800781 13.101563-33.523438 5.3125-10.722656-7.792968-13.101562-22.800781-5.308593-33.523437 7.789062-10.722657 22.800781-13.101563 33.523437-5.308594 10.722656 7.789063 13.097656 22.796875 5.308594 33.519531zm5.5-59.410156c0-4.417969 3.582031-8 8-8s8 3.582031 8 8-3.582031 8-8 8-8-3.582031-8-8zm0 0"
     id="path2"
     style="stroke:none;stroke-opacity:1;fill:#0e0095;fill-opacity:1" />
</svg>
