<?xml version="1.0" encoding="iso-8859-1"?>
<!-- Generator: Adobe Illustrator 19.0.0, SVG Export Plug-In . SVG Version: 6.00 Build 0)  -->
<svg version="1.1" id="Layer_1" xmlns="http://www.w3.org/2000/svg" xmlns:xlink="http://www.w3.org/1999/xlink" x="0px" y="0px"
	 viewBox="0 0 290.628 290.628" style="enable-background:new 0 0 290.628 290.628;" xml:space="preserve">
<g>
	<g>
		<path style="fill:#F9BA48;" d="M266.845,0.002c-3.544,0-7.102,0.811-10.289,2.344l-59.484,28.552
			c-36.169,17.358-68.892,40.547-97.261,68.916s-51.558,61.092-68.916,97.261l-28.552,59.48C0.811,259.745,0,263.304,0,266.846
			c0,13.116,10.664,23.78,23.78,23.78c3.544,0,7.102-0.811,10.289-2.344l59.48-28.552c36.169-17.358,68.892-40.547,97.261-68.916
			s51.558-61.092,68.916-97.261l28.556-59.48c1.533-3.192,2.344-6.75,2.344-10.294C290.625,10.666,279.961,0.002,266.845,0.002z
			 M188.587,153.602L153.6,188.59c-5.306,5.306-12.502,8.287-20.006,8.287c-7.505,0-14.7-2.981-20.006-8.288l-11.55-11.55
			c-5.306-5.306-8.287-12.502-8.287-20.006s2.981-14.7,8.287-20.006l34.987-34.988c5.306-5.306,12.502-8.287,20.006-8.287
			s14.7,2.981,20.006,8.287l11.55,11.55c5.306,5.306,8.287,12.502,8.287,20.006C196.874,141.099,193.894,148.296,188.587,153.602z"
			/>
		<path style="fill:#333333;" d="M285.937,251.186l-30.872-30.872c-6.052-6.042-16.58-6.047-22.631,0l-2.747,2.747l-51.966-51.966
			l14.18-14.18c6.234-6.23,9.661-14.512,9.661-23.32s-3.427-17.091-9.661-23.32l-11.555-11.555
			c-6.225-6.225-14.508-9.656-23.316-9.656s-17.091,3.431-23.32,9.661l-14.18,14.18L67.566,60.94l2.747-2.742
			C73.336,55.174,75,51.157,75,46.877s-1.664-8.297-4.687-11.316L39.441,4.69c-6.052-6.047-16.58-6.047-22.631,0L4.688,16.807
			C1.664,19.83,0,23.847,0,28.127s1.664,8.297,4.687,11.316L35.56,70.315c3.028,3.023,7.045,4.687,11.315,4.687
			s8.292-1.664,11.316-4.688l2.747-2.747l51.966,51.966l-14.18,14.18c-6.234,6.23-9.661,14.512-9.661,23.32
			s3.427,17.091,9.661,23.32l11.555,11.555c6.225,6.225,14.508,9.656,23.316,9.656s17.091-3.431,23.32-9.661l14.18-14.18
			l51.966,51.966l-2.747,2.742c-3.023,3.023-4.688,7.041-4.688,11.32s1.664,8.297,4.688,11.316l30.872,30.872
			c3.028,3.023,7.045,4.688,11.316,4.688s8.292-1.664,11.316-4.688l12.122-12.117c3.023-3.023,4.688-7.041,4.688-11.32
			C290.628,258.222,288.961,254.205,285.937,251.186z M42.188,63.686L11.316,32.815c-1.256-1.252-1.941-2.916-1.941-4.688
			s0.684-3.436,1.941-4.688l12.122-12.117c1.256-1.256,2.916-1.945,4.687-1.945s3.431,0.689,4.687,1.941L63.684,42.19
			c1.256,1.252,1.941,2.916,1.941,4.688s-0.684,3.436-1.941,4.688L51.563,63.682C49.055,66.194,44.695,66.19,42.188,63.686z
			 M140.339,105.354c4.462-4.458,10.387-6.914,16.692-6.914s12.23,2.456,16.692,6.914l11.555,11.555
			c4.458,4.458,6.909,10.383,6.909,16.688c0,6.305-2.452,12.23-6.914,16.692l-14.18,14.18l-44.934-44.934L140.339,105.354z
			 M150.286,185.275c-4.462,4.458-10.387,6.914-16.692,6.914c-6.305,0-12.23-2.456-16.692-6.914l-11.555-11.555
			c-4.458-4.458-6.909-10.383-6.909-16.688s2.452-12.23,6.914-16.692l14.18-14.18l44.934,44.934L150.286,185.275z M279.309,267.19
			l-12.122,12.117c-2.508,2.508-6.867,2.508-9.375,0l-30.872-30.867c-1.256-1.252-1.941-2.916-1.941-4.688s0.684-3.436,1.941-4.688
			l12.122-12.117c1.256-1.256,2.916-1.945,4.688-1.945s3.431,0.689,4.687,1.941l30.872,30.872c1.256,1.252,1.941,2.916,1.941,4.688
			C281.25,264.274,280.565,265.938,279.309,267.19z"/>
		
			<rect x="5.494" y="267.187" transform="matrix(0.7071 -0.7071 0.7071 0.7071 -186.7517 92.89)" style="fill:#333333;" width="26.517" height="9.375"/>
		
			<rect x="30.873" y="248.439" transform="matrix(0.7071 -0.7071 0.7071 0.7071 -168.0037 100.6559)" style="fill:#333333;" width="13.256" height="9.375"/>
		<rect x="257.812" y="257.815" style="fill:#333333;" width="9.375" height="9.375"/>
		<rect x="23.438" y="23.44" style="fill:#333333;" width="9.375" height="9.375"/>
	</g>
</g>
<g>
</g>
<g>
</g>
<g>
</g>
<g>
</g>
<g>
</g>
<g>
</g>
<g>
</g>
<g>
</g>
<g>
</g>
<g>
</g>
<g>
</g>
<g>
</g>
<g>
</g>
<g>
</g>
<g>
</g>
</svg>
