<svg id="Layer_1" data-name="Layer 1" xmlns="http://www.w3.org/2000/svg" viewBox="0 0 556.76 114.88"><defs><style>.cls-1{fill:#fff;}</style></defs><path class="cls-1" d="M382.37,59.68c-2.45,1.43-4,2.33-5.48,3.31a78.82,78.82,0,0,0-21.72,21.73,13.23,13.23,0,0,0-2.11,10.76,6.21,6.21,0,0,0,3.33,4.46,4.93,4.93,0,0,0,5.24.13A31.11,31.11,0,0,0,367,95.95a50,50,0,0,0,8.92-13.62l24.84-49.51a125.83,125.83,0,0,1,14.16-22.08l1.7-2.39a2.32,2.32,0,0,0,.05-1c-0.89.38-1.68,0.6-2.37,1A170.41,170.41,0,0,1,387,20.1a37.38,37.38,0,0,0-5.23,2.26c-2.85,1.43-5.7,2.93-5,6-2,.45-3-0.14-3.68-1.18A2.92,2.92,0,0,1,374,23a21.54,21.54,0,0,1,5.28-3.3c3.25-1.51,6.82-2.79,10.28-4A146,146,0,0,0,408.22,8C413,5.51,418,3.11,422.88.77a8.16,8.16,0,0,1,3-.76c2.71-.16,3.76.88,2.95,2.75A24,24,0,0,1,427,6.28C414.09,25.67,404.68,46,395.27,66.35c-2.55,5.68-5.41,11.29-8.26,16.9A48.36,48.36,0,0,1,376.38,97a40.31,40.31,0,0,1-7,4.88c-4.82,2.48-10.14,2.65-15.74,1.26-4-1-6.59-3-7.64-6.17-1.29-3.8-.65-7.39,1.1-10.9A38.86,38.86,0,0,1,355,75.91,110.42,110.42,0,0,1,374.52,61.8,14.18,14.18,0,0,1,382.37,59.68Z"/><path class="cls-1" d="M36.57,59.68c-2.45,1.43-4,2.33-5.48,3.31A78.82,78.82,0,0,0,9.36,84.72,13.23,13.23,0,0,0,7.25,95.48a6.21,6.21,0,0,0,3.33,4.46,4.93,4.93,0,0,0,5.24.13,31.11,31.11,0,0,0,5.34-4.13,50,50,0,0,0,8.92-13.62L54.93,32.81A125.83,125.83,0,0,1,69.09,10.73l1.7-2.39a2.32,2.32,0,0,0,.05-1c-0.89.38-1.68,0.6-2.37,1A170.41,170.41,0,0,1,41.24,20.1,37.38,37.38,0,0,0,36,22.36c-2.85,1.43-5.7,2.93-5,6-2,.45-3-0.14-3.68-1.18A2.92,2.92,0,0,1,28.19,23a21.54,21.54,0,0,1,5.28-3.3c3.25-1.51,6.82-2.79,10.28-4A146,146,0,0,0,62.42,8C67.23,5.51,72.15,3.11,77.07.77a8.16,8.16,0,0,1,3-.76C82.77-.14,83.82.9,83,2.77a24,24,0,0,1-1.85,3.51C68.28,25.67,58.87,46,49.47,66.35,46.92,72,44.06,77.64,41.2,83.25A48.36,48.36,0,0,1,30.58,97a40.31,40.31,0,0,1-7,4.88c-4.82,2.48-10.14,2.65-15.74,1.26-4-1-6.59-3-7.64-6.17-1.29-3.8-.65-7.39,1.1-10.9A38.86,38.86,0,0,1,9.15,75.91,110.42,110.42,0,0,1,28.72,61.8,14.18,14.18,0,0,1,36.57,59.68Z"/><path class="cls-1" d="M96.59,47.23c2-1,2.56-2.28,3.33-3.32A73.22,73.22,0,0,1,105,37c2.15-2.55,5-2.5,8-.13-0.67,1.32-1.33,2.82-2.09,4.32-2.87,5.36-5.74,10.9-7.29,16.7a11.52,11.52,0,0,0-.54,6c0.89-.48,1.59-0.59,2.19-1a9.27,9.27,0,0,0,2-1.43c11.43-9.23,20.7-16.36,32.12-25.68,1.09-.76,2.07-1.53,3.85-2.86-0.26,1.4-.24,2.05-0.54,2.33a35.85,35.85,0,0,1-3.23,3.5c-3.34,3.13-4.63,3.9-8,7.12s-6.76,6.82-10.09,10.32a73.83,73.83,0,0,1-11,9.5,15.94,15.94,0,0,1-9.19,2.67c-4.64-.2-7.32-2.3-7.65-6.67a18.84,18.84,0,0,1-.07-2.42c-1.28,1.23-1.86,2-2.65,2.65a102.91,102.91,0,0,1-7.87,6.65,19.41,19.41,0,0,1-14.72,3.23c-4.86-.76-6.94-3.05-6.46-7.53a13.18,13.18,0,0,1,1.07-4.77A58.3,58.3,0,0,1,76.72,39.37,25,25,0,0,1,89,32.92a16.45,16.45,0,0,1,5.24-.09c3,0.41,4.69,2.06,4.77,4.95a32.85,32.85,0,0,1-1,5.51A25.35,25.35,0,0,1,96.59,47.23ZM73,66.72c1-.39,1.79-0.78,2.69-1.16,9.82-5.38,15.74-13.49,18.68-23.69a13.42,13.42,0,0,0,.19-4,2.83,2.83,0,0,0-2.19-2.66,13.58,13.58,0,0,0-6.45,3.56A47.64,47.64,0,0,0,72.23,62.26,4.63,4.63,0,0,0,73,66.72Z"/><path class="cls-1" d="M230.7,32.76a20.45,20.45,0,0,1-2.84,2.94s-24.36,21.4-27.28,23-7,3.57-10.28,2.79-4.08-2.92-3.91-5.28a120.92,120.92,0,0,1,2-12,9.88,9.88,0,0,0-2.66,1.54c-2.79,2.37-6.63,8.8-12.71,14.8a17.79,17.79,0,0,1-10,4.45c-4.33.17-6-1.67-5.1-5.69,0.44-2.15,1.29-4.21,1.84-6.27,0.27-1.12,4.73-11.57,5-13.25a29.34,29.34,0,0,0-9.1,6.13c-4.51,4.45-9.9,11-14.41,15.33-1.67,1.61-3.34,3.13-5.11,4.56a8.6,8.6,0,0,1-7.92,1.53c-2.44-.7-3.28-1.9-2.94-4.23a14.74,14.74,0,0,1,.45-2.06c2.39-8,7.62-19.67,12.56-26.55,1-1.32,1.93-2.83,3.74-3a4.71,4.71,0,0,1,3,.6c0.51,0.36.45,1.67,0.27,2.41-0.84,2.34-3.29,8.79-4.23,11-1.42,3.38-.83,1.79-2.24,5.17a29.47,29.47,0,0,0-1.41,3.38c1.58-1.24,2.72-2,5.14-4.15s4.78-4.49,8.92-7.63c3.36-2.57,6.3-4.89,10.79-6.79a10.6,10.6,0,0,1,5.41-1.12c2.82,0,4.28,1.51,4.35,4.11,0.15,1.67-3.32,13.31-3.47,15L168.11,56a5.14,5.14,0,0,1,.82.64c1.88-1.34,6.09-6.14,8.36-8.63S184,40.57,188,38.55a16.39,16.39,0,0,1,5.41-1.21c5.84-.56,1.67,7.51,1.27,10.68s-0.81,4.82.56,5.58c2.23,0.52,6.62-2,8-2.68,9.38-7,17.13-12.1,22.3-16.58,2.78-1.63,2.77-1.42,2.82-2.09,1-.67.45-0.56,1.55-0.85,0.5-.1.56-0.59,0.87-0.22A1.75,1.75,0,0,1,230.7,32.76Z"/><path class="cls-1" d="M226.72,59.27a33.12,33.12,0,0,0,7.32-5c9.25-7.89,11.27-7.55,20.52-15.53,1.77-1.52,3.44-2.94,5.22-4.37a17.12,17.12,0,0,1,3.08-1.54c-0.46,1.5-.54,2.34-1,2.9-1.56,2-3.42,3.78-5.08,5.58-4.79,5.2-.87,1.23-5.77,6.34-3.62,3.79-8.63,8.43-12.56,11.94a37.89,37.89,0,0,1-7.33,4.6c-2.68,1.44-5.7,1.4-8.63,1.08-3.84-.49-5.92-2.51-5.92-6.23a39.57,39.57,0,0,1,.81-6.81c1.33-6.54,4.39-12.37,8.16-17.92a12,12,0,0,1,3.24-3,3.22,3.22,0,0,1,3.92-.16c1.43,0.81.76,2,.39,3.16-1.21,3.37-2.73,6.75-3.74,10.21-1.1,4-1.89,8.23-2.88,12.34A14.06,14.06,0,0,0,226.72,59.27ZM244,7.39l-2.62,3.49c-1.75,2.36-3.5,4.62-5.34,7a2.1,2.1,0,0,1-.78,1c-0.69.38-1.68,1.05-2.4,0.79-0.51-.18-0.94-1.29-1.17-2a2.46,2.46,0,0,1,.46-1.59,78.23,78.23,0,0,1,4.73-7.34C238.44,6.83,240.53,6.14,244,7.39Z"/><path class="cls-1" d="M307.4,34.51c-0.54,2.39-2,3.13-3.14,3.89-13,8.92-14.43,10.78-21.95,15.32a179.29,179.29,0,0,1-15.83,8.92,25.92,25.92,0,0,1-13.17,2.84,24.83,24.83,0,0,1-5-1.08c-2.37-.82-3.89-2.6-3.76-4.92A23.07,23.07,0,0,1,245.73,53c4-9.35,10.73-16.72,19.53-22.57a12.58,12.58,0,0,1,8.8-2.3c4.51,0.49,5.82,2.45,3.59,6.12a26,26,0,0,1-9,9.75,58.31,58.31,0,0,1-8.11,4.21,5.27,5.27,0,0,0-3.31,3.32c-1,2.55-1.9,5.1-.84,7.78a5.11,5.11,0,0,0,4.67-.62c3.93-1.79,7.77-3.58,11.52-5.76,12.21-7.2,7.35-3.33,19.66-10.62,3.55-2.1,7.19-4,10.73-6A40.15,40.15,0,0,1,307.4,34.51Zm-33.27-3.93c-3.37.8-5,3.3-6.86,5.32-3.86,4-4.2,4.66-4.86,7.42A22,22,0,0,0,273.18,35C274.05,33.84,275,32.6,274.13,30.58Z"/><path class="cls-1" d="M346.78,26.64c-0.39.24-.76,0.49-1.18,0.8l-0.66.47-0.53.37L345,28.59a4,4,0,0,0,3.89.13c3-1.36,4.92-3.69,6.08-7.35a6.06,6.06,0,0,0-.81-5,6.41,6.41,0,0,0-4.35-3.06,16.59,16.59,0,0,0-8.27,1A12,12,0,0,0,334,22.13a6.83,6.83,0,0,0,.25,5.45,13.87,13.87,0,0,1,.65,1.45l0,0.09a3,3,0,0,1-.42.15,26.71,26.71,0,0,0-11.73,6.35c-4.26,3.87-6.72,8.06-7.52,12.8-0.53,2.87-.87,6.62,1.13,10.13a47.9,47.9,0,0,0,3.44,4.76A11.09,11.09,0,0,0,325.6,67a18,18,0,0,0,5.32.8,20.61,20.61,0,0,0,3.27-.27,15,15,0,0,0,12.08-9c1.45-3,1.25-5.63-.6-7.88a0.15,0.15,0,0,1,0,0L347,50c0.53-.21,1-0.42,1.57-0.66a11.27,11.27,0,0,0,4.91-4c0.41-.64,1.09-1.72.21-2.61a1.26,1.26,0,0,0-.89-0.46,1.69,1.69,0,0,0-1.23.67,3.13,3.13,0,0,1-.36.31l-0.49.37c-2.43,2.33-5.48,3.56-9.59,3.87a43.2,43.2,0,0,0-6.09.92,7.56,7.56,0,0,0-5.16,4,2.57,2.57,0,0,0-.19,2.47,2.74,2.74,0,0,0,2.21,1.44,5.17,5.17,0,0,0,1.31-.1l0.48-.07,0.23,0,0.09-.22c0-.11.09-0.21,0.14-0.3a1.71,1.71,0,0,0,.24-0.76c0.05-1.88,1.38-2.66,2.81-3.22a2.77,2.77,0,0,1,3.06.55,2.54,2.54,0,0,1,.69,3c-1.51,4-3.8,6.51-7,7.79a5.68,5.68,0,0,1-5.7-.63c-4.44-3.37-6.54-7.3-6.44-12C322,41.67,328.8,33.67,337.44,32l0.27,0.23a4.07,4.07,0,0,0,.86.62,6.58,6.58,0,0,0,2.09.66,1.73,1.73,0,0,0,2.17-1.21,3.08,3.08,0,0,0-.56-2,19,19,0,0,0-1.08-1.58,13.93,13.93,0,0,1-1.35-2.09,6.15,6.15,0,0,1-.82-3.29c0.77-4.7,3.47-7.4,8-8a3.94,3.94,0,0,1,3.48,1.27,4.12,4.12,0,0,1,.86,3.8A9.71,9.71,0,0,1,346.78,26.64Z"/><path class="cls-1" d="M439.22,48.65c1.83-.57,3.25-0.88,4.68-1.38,2.91-1,5.51-.55,12.5-5a20.94,20.94,0,0,1,3.68-1.61c1.47,1.37,1.33,2.67.19,3.64a23.79,23.79,0,0,1-5,3.79c-8.21,4.78-7.63,3.74-17.37,5.93a30.18,30.18,0,0,1-1.42,4.73c-0.77,2.39-2.59,5.47-6.16,9.88-3,3.78-7.22,5.28-12.33,4.41s-8.95-3.92-9.5-8.89a19.5,19.5,0,0,1,.53-7.25,65.12,65.12,0,0,1,4.09-11.47,26.88,26.88,0,0,1,13-13.14,15.59,15.59,0,0,1,7.21-1.65c3.82,0.26,5.79,1.74,6.18,5.3a37.59,37.59,0,0,1-.35,4.74C439.07,41.42,439.25,47.53,439.22,48.65ZM420.43,66.86c1.84,0.32,3.76-1.52,5.72-3.55a13.33,13.33,0,0,0,3.5-5.28c0.74-2,1.27-3.73-.16-6.08a9.45,9.45,0,0,0,3.2-3.92c1-3,.66-5.5.22-12.84a18.1,18.1,0,0,0-5.5,5.08c-4.73,6.13-7.16,13.11-8.7,20.32C418.24,62.9,418.59,66.55,420.43,66.86Z"/><path class="cls-1" d="M505.28,37.37c-0.64,2.54-2.13,3.3-3.31,4.09C491.21,52.68,487.49,54.88,481.6,59.3a76.45,76.45,0,0,1-16.22,9.19,28.38,28.38,0,0,1-12.26,1.9,22.94,22.94,0,0,1-4.94-1.26,5.12,5.12,0,0,1-3.56-5.33,26.4,26.4,0,0,1,1.44-6.86C450.4,47,457.48,39.3,466.53,33.24A12.17,12.17,0,0,1,475.44,31c4.5,0.62,5.72,2.73,3.34,6.61a27.88,27.88,0,0,1-9.43,10.22,58.46,58.46,0,0,1-8.29,4.33,5.6,5.6,0,0,0-3.45,3.48c-1.06,2.7-2.11,5.4-1.16,8.29,1.94,0.88,3.43.12,4.71-.56a113,113,0,0,0,11-5.45c12.51-7.43,16.81-10.19,19.23-11.82s6-4.2,9.39-6.8A38.59,38.59,0,0,1,505.28,37.37Zm-29.87-3.8c-3.41.78-5.17,3.42-7.08,5.54-4,4.22-4.39,4.89-5.17,7.81a22.82,22.82,0,0,0,11.11-8.66C475.19,37.05,476.22,35.74,475.41,33.57Z"/><path class="cls-1" d="M521.34,48.69c-2,1.49-3.74,3.18-5.79,4.58-3,2.06-6.07,4-9.25,5.8a14,14,0,0,1-8.5,1.31c-3.27-.47-5-2.52-4.49-5.79,1.12-6,7.76-17.2,12.24-21.49a4.74,4.74,0,0,1,6.54-.37c-2.52,5.23-9.53,16.17-10.56,22,1.68,0.56,2.71-.47,3.83-1a103.7,103.7,0,0,0,16.82-12.34l8.22-7.2c1.78-1.59,3.74-2.34,6.07-1.31a2.39,2.39,0,0,1,1.59,2.8,25.43,25.43,0,0,1-1.5,4.49c-1.4,3.27-3,6.36-4.39,9.53-0.37.93-.66,1.87-1.21,3.27,2.62-.66,3.92-2.24,5.51-3.36s3.27-2.43,4.86-3.65,3.36-2.34,5-3.55l5-3.65a16.31,16.31,0,0,1,5.51-2.9,9.2,9.2,0,0,1-1.21,1.87c-3.18,2.52-6.36,5-9.53,7.66-5.42,4.2-10.74,8.5-16.17,12.61a15.18,15.18,0,0,0-4.3,5.42,214.63,214.63,0,0,1-18.88,33.45,113.09,113.09,0,0,1-7.85,9.81c-3.83,4.11-8.41,7.29-14.11,8.22a15.65,15.65,0,0,1-5.51-.28,4.26,4.26,0,0,1-3.46-4.39,13,13,0,0,1,2-7.94,124.44,124.44,0,0,1,8-11.4,98.52,98.52,0,0,1,18.78-17c5.52-3.83,9.72-8.41,12.34-14.67,1.5-3.46,3.46-6.73,5.14-10A2.76,2.76,0,0,0,521.34,48.69Zm-38.41,62.43c1.5-.75,2.52-1.12,3.46-1.68a24.56,24.56,0,0,0,7.2-8c4.3-7.29,8.51-14.67,12.71-22l0.75-2a7.07,7.07,0,0,0-1.5.94A123.61,123.61,0,0,0,490,94.95a90.57,90.57,0,0,0-6,9.53A8.87,8.87,0,0,0,482.93,111.12Z"/></svg>