<svg id="Layer_1" data-name="Layer 1" xmlns="http://www.w3.org/2000/svg" viewBox="0 0 210.69 64.58"><defs><style>.cls-1{fill:#fff;}</style></defs><path class="cls-1" d="M26.58,0.64a3.78,3.78,0,0,1,.88-0.5A2.75,2.75,0,0,1,30,.72a6.33,6.33,0,0,1,1.49,1.53,22.07,22.07,0,0,1,3.85,14.34A28,28,0,0,1,32.68,26a40.6,40.6,0,0,1-7.06,10.68,21.39,21.39,0,0,1-4.77,3.93,8.27,8.27,0,0,1-5.68,1.07,3.07,3.07,0,0,1-3-3.51,15.47,15.47,0,0,1,.57-2.94,16.06,16.06,0,0,0,.57-2.14l-0.61.61L7.36,40.11A9.5,9.5,0,0,1,5.8,41.56a6.08,6.08,0,0,1-2.06,1A2.77,2.77,0,0,1,.23,40.42a7,7,0,0,1,0-3.55,19.5,19.5,0,0,1,.88-2.52,79.05,79.05,0,0,1,9.53-16A15.78,15.78,0,0,1,12,16.89a2.88,2.88,0,0,1,.92-0.57,1.16,1.16,0,0,1,1.29.23,1,1,0,0,1,0,1.18c-1.45,2.6-2.9,5.19-4.31,7.78a86.13,86.13,0,0,0-4.73,8.58,18.63,18.63,0,0,0-1.6,4.73c0,0.38,0,.76,0,1.3A3.19,3.19,0,0,0,5.22,39,123.42,123.42,0,0,0,15.37,27.72C16.55,26.16,17.73,24.59,19,23a4,4,0,0,1,1-.92,1,1,0,0,1,1.29.27,1.13,1.13,0,0,1,.11,1c-0.53,1.41-1.11,2.74-1.64,4.16-1,2.63-2.1,5.3-3.05,8a11.26,11.26,0,0,0-.46,2.25,2.15,2.15,0,0,0,.65,1.91,11.75,11.75,0,0,0,1.68-.91,44.5,44.5,0,0,0,3.85-3.13,40.82,40.82,0,0,0,8-10.22,26.75,26.75,0,0,0,3-9.8,16.63,16.63,0,0,0-.3-4.77,23.91,23.91,0,0,0-2.44-7.24l-0.57-.92C29.1,1,28.68.75,26.58,0.64Z"/><path class="cls-1" d="M44.39,30.92a3.3,3.3,0,0,0,1.3-1.33,30.1,30.1,0,0,1,2-2.78c0.84-1,1.91-1,3,0-0.27.53-.53,1.14-0.84,1.75a34.44,34.44,0,0,0-2.94,6.79,5.13,5.13,0,0,0-.27,2.44c0.34-.19.61-0.23,0.84-0.38a3.79,3.79,0,0,0,.76-0.57c4.42-3.7,8-6.56,12.43-10.3,0.42-.31.8-0.61,1.49-1.15a2.67,2.67,0,0,1-.23,1,14.46,14.46,0,0,1-1.26,1.41c-1.3,1.26-1.79,1.56-3.09,2.86s-2.63,2.75-3.93,4.16a29,29,0,0,1-4.27,3.81,5.75,5.75,0,0,1-3.51,1,2.65,2.65,0,0,1-2.82-2.78,8.54,8.54,0,0,1,0-1c-0.5.5-.72,0.8-1,1.07-1,.91-2,1.87-3.05,2.67a7,7,0,0,1-5.61,1.22c-1.83-.34-2.6-1.3-2.37-3.13a5.86,5.86,0,0,1,.46-1.95A24.27,24.27,0,0,1,37,27.57,9.31,9.31,0,0,1,41.68,25a5.76,5.76,0,0,1,2,0,1.89,1.89,0,0,1,1.75,2.06A14.22,14.22,0,0,1,45,29.32,11.1,11.1,0,0,1,44.39,30.92Zm-9.15,7.82c0.38-.15.69-0.31,1-0.46a15.47,15.47,0,0,0,7.32-9.57,6,6,0,0,0,.11-1.64A1.13,1.13,0,0,0,42.9,26a5.09,5.09,0,0,0-2.48,1.41A20.14,20.14,0,0,0,35,36.91,2,2,0,0,0,35.23,38.74Z"/><path class="cls-1" d="M75.08,25.62a2.76,2.76,0,0,1-1.26,1.87c-1.45,1.22-2.9,2.44-4.39,3.62-2,1.64-4.08,3.28-6.18,4.84A2.88,2.88,0,0,0,62,38.66a23.32,23.32,0,0,1-2.06,10.91,15.54,15.54,0,0,1-2.4,4,6.93,6.93,0,0,1-3.89,2.36,6.24,6.24,0,0,1-1.22.15,2.69,2.69,0,0,1-3-2.82,13.2,13.2,0,0,1,.61-4.73,16.72,16.72,0,0,1,3-5.42,29.82,29.82,0,0,1,3.43-3.85,3.6,3.6,0,0,0,1.26-3.13,31.72,31.72,0,0,1,0-4.27,10.23,10.23,0,0,1,3.32-7.44A7.76,7.76,0,0,1,63,23.1a1.6,1.6,0,0,1,1.83,0c-1.6,1.95-3,4-3.24,6.56a19.37,19.37,0,0,0,.31,4.88,14.31,14.31,0,0,0,2.78-1.68c0.88-.57,1.75-1.18,2.63-1.79l2.52-1.72c0.88-.65,1.72-1.3,2.6-1.91S73.86,26,75.08,25.62ZM57.46,41.83a17.14,17.14,0,0,0-4.23,6A13.73,13.73,0,0,0,52,52.66a2.69,2.69,0,0,0,.42,1.91,3.4,3.4,0,0,0,2.25-2.13A26,26,0,0,0,57.46,41.83Z"/><path class="cls-1" d="M70,38.41a9.67,9.67,0,0,0,1-.69c1.75-1.37,3.43-2.78,5.19-4.08a26.72,26.72,0,0,1,3.35-2A4.32,4.32,0,0,1,81,31.09,1.77,1.77,0,0,1,83.28,33c0,1.41-.27,2.82-0.42,4.23l-0.27,2.25a12.38,12.38,0,0,0,1.26-.91c3.47-3.43,5.89-6,9.32-9.39,0.88-.88,1.72-1.79,2.6-2.67a1.76,1.76,0,0,1,1.71-.72,6.92,6.92,0,0,1-.38,1.07c-0.88,1.15-1.72,2.25-2.63,3.39-2.48,3.09-3.91,5.3-6.81,8a28.66,28.66,0,0,1-2.9,2.37,4.46,4.46,0,0,1-3,.88c-1.49-.11-2.21-0.8-2.13-2.29a35.74,35.74,0,0,1,.57-4c0.11-.76.34-1.49,0.57-2.48a7.5,7.5,0,0,0-1.11.53c-1.22,1.07-2.44,2.1-3.62,3.17s-2.48,2.4-3.78,3.51a8.87,8.87,0,0,1-2.56,1.56,3.91,3.91,0,0,1-2.1.07,1.45,1.45,0,0,1-1.41-1.72,15.76,15.76,0,0,1,.49-3A38.79,38.79,0,0,1,70.43,28a104.31,104.31,0,0,1,10-14.76A27,27,0,0,1,84,9.62a6.65,6.65,0,0,1,2.52-1.3c1.91-.5,3.09.61,2.75,2.52a11.63,11.63,0,0,1-1.11,3.35,48.66,48.66,0,0,1-12,15.1c-0.88.69-1.87,1.22-2.82,1.87a2.87,2.87,0,0,0-1,.92C71.45,34,70.66,36,69.86,38A1.88,1.88,0,0,0,70,38.41ZM87,9.77a18.33,18.33,0,0,0-1.72,1.68,29.48,29.48,0,0,0-2.52,3.2c-2.59,4.12-5.15,8.24-7.7,12.4a4.44,4.44,0,0,0-.23.76,3,3,0,0,0,.65-0.5A75.63,75.63,0,0,0,85.22,15.8,24.92,24.92,0,0,0,86.79,13,4.39,4.39,0,0,0,87,9.77Z"/><path class="cls-1" d="M95.34,37.87a31.89,31.89,0,0,0,5.79-3.17A49.57,49.57,0,0,0,107,30.43c0.69-.65,1.33-1.25,2-1.86a6.13,6.13,0,0,1,1.18-.65,4.39,4.39,0,0,1-.42,1.26c-0.61.85-1.33,1.62-2,2.39-1.87,2.23-.34.53-2.25,2.72a30.1,30.1,0,0,1-4.61,4,18,18,0,0,1-4,1.77,11.5,11.5,0,0,1-3.28.41,2.41,2.41,0,0,1-2.17-2.76,19.79,19.79,0,0,1,.38-3A23.38,23.38,0,0,1,95.14,27a4.91,4.91,0,0,1,1.26-1.3,1.1,1.1,0,0,1,1.49,0C98.42,26,98.15,26.56,98,27c-0.5,1.46-1.11,2.92-1.53,4.42-0.46,1.74-.8,3.57-1.22,5.35A6.86,6.86,0,0,0,95.34,37.87Zm7.09-22.46-1,1.5c-0.69,1-1.37,2-2.1,3a0.9,0.9,0,0,1-.3.44,1.22,1.22,0,0,1-.92.33,1.58,1.58,0,0,1-.42-0.89,1.16,1.16,0,0,1,.19-0.69,35.71,35.71,0,0,1,1.87-3.16A2,2,0,0,1,102.43,15.41Z"/><path class="cls-1" d="M109.21,35.08c0.57-.49,1.11-1,1.72-1.42,1.79-1.38,3.55-2.76,5.38-4.09a5.48,5.48,0,0,1,2.86-1c2.06,0,3.09,1.24,2.9,3.64-0.08,1.2-.27,2.35-0.38,3.51a9.39,9.39,0,0,0,0,1c0.72,0.4,3.51-.6,6-2s3.24-1.89,7.05-4.47a12.3,12.3,0,0,1,1.38-.89,2.17,2.17,0,0,1,1-.48c0.46,0.09.53,0.12,0.27,0.48a4.47,4.47,0,0,1-1,1.15c-2.67,2.22-4.49,4.15-6.52,5.66a32.5,32.5,0,0,1-5.56,3s-2.74,1-4.19.62-2.14-1.15-2-3c0.08-1.24.34-2.45,0.54-3.69l0.27-2.76c-0.65.36-1.07,0.49-1.45,0.76a67.52,67.52,0,0,0-9.34,8.62c-0.26.27-.49,0.58-0.76,0.84a2.27,2.27,0,0,1-2.36.58c-1-.22-1.3-0.89-0.91-2q1.37-3.53,2.86-6.93c0.57-1.29,1.26-2.49,1.95-3.73a3,3,0,0,1,.84-1,0.79,0.79,0,0,1,1.18.89,17.74,17.74,0,0,1-.65,2.58c-0.42,1.29-.88,2.58-1.33,3.82A1.87,1.87,0,0,0,109.21,35.08Z"/><path class="cls-1" d="M182.51,34.23c0.57-.49,1.11-1,1.72-1.42,1.79-1.38,3.55-2.76,5.38-4.09a5.48,5.48,0,0,1,2.86-1c2.06,0,3.09,1.24,2.9,3.64-0.08,1.2-.27,2.35-0.38,3.51a9.39,9.39,0,0,0,0,1c0.72,0.4,3.42-.8,5.74-2.09s3.87-2.55,7.69-5.12a12.3,12.3,0,0,1,1.38-.89,1.6,1.6,0,0,1,.84-0.18,0.54,0.54,0,0,1,0,.53,4.55,4.55,0,0,1-.8.86c-2.67,2.22-5.3,4.44-8,6.57a35.77,35.77,0,0,1-4.19,2.71,5.8,5.8,0,0,1-4.19.62c-1.56-.36-2.14-1.15-2-3,0.08-1.24.34-2.45,0.54-3.69l0.27-2.76c-0.65.36-1.07,0.49-1.45,0.76a67.52,67.52,0,0,0-9.34,8.62c-0.26.27-.49,0.58-0.76,0.84a2.27,2.27,0,0,1-2.36.58c-1-.22-1.3-0.89-0.91-2,0.91-2.35,2.43-5.85,3.42-8.12,0.57-1.29,1.26-2.49,1.95-3.73a3,3,0,0,1,.84-1,0.79,0.79,0,0,1,1.18.89,17.74,17.74,0,0,1-.65,2.58c-0.42,1.29-1.44,3.77-1.9,5A1.87,1.87,0,0,0,182.51,34.23Z"/><path class="cls-1" d="M141.14,35.48c-1.18.69-2.1,1.22-3,1.72a7,7,0,0,1-4.27.92,5,5,0,0,1-1.52-.42,1.81,1.81,0,0,1-1-2.25,5.1,5.1,0,0,1,.5-1.14c1-1.6,2.81-4.27,4.45-5.19a5.45,5.45,0,0,1,3.09-.72,1.55,1.55,0,0,1,1.52,1.95c-0.11.8-1,2.9-1.28,3.89a35.5,35.5,0,0,0,5.68-4.84,8.18,8.18,0,0,1,1-1,1.49,1.49,0,0,1,1.83,0,1.15,1.15,0,0,1,.07,1.45c-0.8,1.79-1.6,3.59-2.44,5.38-0.34.72-.76,1.45-1.26,2.44a5.36,5.36,0,0,0,1.07-.38c3.05-1.45,6.06-3,9.15-4.42,0.57-.3-1.71-0.72-0.87-0.34-0.23.76,2,.92,1.48,1.18-3,1.6-6,3.2-9,4.73a10,10,0,0,0-4.81,4.73c-2,3.85-4.27,7.55-6.52,11.25a33.49,33.49,0,0,1-5.49,7,24.63,24.63,0,0,1-2.94,2.33,5.59,5.59,0,0,1-4.12.72,2.1,2.1,0,0,1-2-2.48,8.52,8.52,0,0,1,.69-2.74,24.75,24.75,0,0,1,2.29-4.19,42.09,42.09,0,0,1,11.06-11,14.36,14.36,0,0,0,5.23-5.88c0.34-.68.8-1.33,1.18-2C141,36.09,141,36,141.14,35.48ZM123.68,62.75a9.48,9.48,0,0,0,1.3-.88,34.41,34.41,0,0,0,2.44-2.82,124.65,124.65,0,0,0,7.7-12.58A0.86,0.86,0,0,0,135,46a43,43,0,0,0-8.92,9.88A31.58,31.58,0,0,0,124,60,3.63,3.63,0,0,0,123.68,62.75Zm15-28a4.78,4.78,0,0,1,.22-2.81c0.27-.76.65-1.53,0.08-2.29a5.88,5.88,0,0,0-4.08,3.05c-0.54.88-1.09,2.81-.56,3.8C135.88,36.52,136.76,36.13,138.7,34.8Z"/><path class="cls-1" d="M156.46,37.21a7.8,7.8,0,0,0,1.26-.61c1.11-.88,2.25-1.75,3.28-2.74,2.52-2.4,4-4.14,6.5-6.59a8.47,8.47,0,0,1,1.11-.91,0.81,0.81,0,0,1,.61.19,0.47,0.47,0,0,1,.08.5,8.7,8.7,0,0,1-.72,1c-2.56,3-4.14,5.29-6.77,8.26a16.06,16.06,0,0,1-2.75,2.29,5.48,5.48,0,0,1-3.93.76,2.47,2.47,0,0,1-2.33-2.29,9,9,0,0,1,.34-4,50.56,50.56,0,0,1,3.81-9l0.8-1.68c-1.75-.15-3.35,1.29-4.88,0a1.49,1.49,0,0,1,1.3-1.22,28.69,28.69,0,0,1,3.58-.91,2.93,2.93,0,0,0,2.33-1.64c1.07-1.79,2.21-3.55,3.36-5.26a11.3,11.3,0,0,1,1.33-1.68c0.57-.61.76-0.57,1.95-0.3a2.56,2.56,0,0,1-.54,1.79c-0.76,1.45-1.6,2.94-2.36,4.39a13.46,13.46,0,0,0-.61,1.29c0.76,0.46,1.87-.27,2.44.76a2.33,2.33,0,0,1-1.87,1,3.25,3.25,0,0,0-2.67,2.06c-1.26,2.78-2.63,5.57-3.93,8.35a11.27,11.27,0,0,0-1.11,4.5A2.89,2.89,0,0,0,156.46,37.21Z"/><path class="cls-1" d="M174.73,29.39c0.69-.24,1.22-0.37,1.76-0.58,3-1.15,2.74-.54,5.34-2.26a8,8,0,0,1,1.38-.64,0.77,0.77,0,0,1,.11,1.32,9.23,9.23,0,0,1-1.83,1.45c-3.05,1.86-3.09,1.69-6.75,2.63a12.48,12.48,0,0,1-.3,2,14.63,14.63,0,0,1-2.75,5.43,4.77,4.77,0,0,1-4.62,1.79c-2-.2-3.43-1.28-3.7-3.07a6.77,6.77,0,0,1,.11-2.63,23.27,23.27,0,0,1,1.41-4.22,10.06,10.06,0,0,1,4.77-5,6.14,6.14,0,0,1,2.71-.71c1.45,0,2.21.54,2.4,1.82a13.29,13.29,0,0,1-.08,1.72A8.66,8.66,0,0,0,174.73,29.39Zm-6.79,9.14A12.72,12.72,0,0,0,169,37.45c0.8-1.28,1.56-2.6,2.25-3.91,0.57-1.11,1-2.26.19-3.41,1.45-1.25,1.64-2,.8-3.54a6.87,6.87,0,0,0-2,1.92A17.57,17.57,0,0,0,167.18,36,3.06,3.06,0,0,0,167.94,38.53Z"/></svg>