<svg id="Layer_1" data-name="Layer 1" xmlns="http://www.w3.org/2000/svg" viewBox="0 0 114.17 64.58"><defs><style>.cls-1{fill:#fff;}</style></defs><path class="cls-1" d="M37.5,15.85c-0.4.75-.72,1.51-1.16,2.22-1.93,3.15-3.9,6.22-5.79,9.38a62.24,62.24,0,0,0-4.25,9.67,5.33,5.33,0,0,0-.37,3.18,5.28,5.28,0,0,0,2.58-.87c2.31-1.33,4.57-2.63,6.81-4s4.59-3,6.88-4.57a16.92,16.92,0,0,1,3.52-1.91,15,15,0,0,1-1.61,1.87c-0.54.5-1.07,1-1.65,1.5l-9.54,7.43a25.41,25.41,0,0,1-3,1.92,6.58,6.58,0,0,1-3.69.9A9.32,9.32,0,0,1,23.73,42a2.74,2.74,0,0,1-2-3,19.9,19.9,0,0,1,.79-3.43c0.18-.67,2-4,2.53-7.1-0.33.26-.62,0.53-0.92,0.79-3,2.88-6,5.77-9.19,8.56a27.14,27.14,0,0,1-4.33,3A8.44,8.44,0,0,1,4,41.45a4.14,4.14,0,0,1-3-2.62,5.16,5.16,0,0,1,.15-4,21.42,21.42,0,0,1,2.21-3.92c1.48-2.06,3.2-4,4.72-6,1.31-1.78,2.55-3.64,3.72-5.56a7.92,7.92,0,0,0,1.08-2.81c0.32-1.38-.36-1.94-1.85-1.61L10.52,15a22.22,22.22,0,0,0-7.2,4.1,6.33,6.33,0,0,0-2.1,3.71L1,24.11a2.79,2.79,0,0,1-.91-0.78,3.75,3.75,0,0,1,.35-2.76,9.53,9.53,0,0,1,2.58-3.25A18.62,18.62,0,0,1,10,13.86a6.9,6.9,0,0,1,3.32-.07c1.77,0.37,2.77,1.4,2.66,3.07a13,13,0,0,1-.72,3.29,31.55,31.55,0,0,1-3.83,6.31c-1.29,1.9-2.65,3.75-3.82,5.7a22.42,22.42,0,0,0-1.72,3.76,3.58,3.58,0,0,0,.26,3.23,5.51,5.51,0,0,0,1.38-.46,46.59,46.59,0,0,0,4.9-3.42c5.48-4.54,10.85-9.2,16.29-13.79a38.66,38.66,0,0,0,5.56-5.1,3.33,3.33,0,0,1,1-.82A1.74,1.74,0,0,1,37.5,15.85Z"/><path class="cls-1" d="M44.94,39.64A8.74,8.74,0,0,0,46.33,39c1.22-.88,2.48-1.75,3.61-2.74,2.77-2.4,6-4.81,8.74-7.26a8.85,8.85,0,0,1,1.22-.92,1,1,0,0,1,.67.19,0.43,0.43,0,0,1,.08.5,8.3,8.3,0,0,1-.8,1c-2.81,3-6.14,6-9,8.93a17.35,17.35,0,0,1-3,2.29,6.54,6.54,0,0,1-4.33.76,2.6,2.6,0,0,1-2.56-2.29,8.24,8.24,0,0,1,.38-4,48.28,48.28,0,0,1,4.2-9l0.88-1.68c-1.93-.15-3.7,1.29-5.37,0a1.59,1.59,0,0,1,1.43-1.22,35.33,35.33,0,0,1,3.94-.91A3.23,3.23,0,0,0,48.93,21c1.18-1.79,2.43-3.55,3.7-5.27A11.39,11.39,0,0,1,54.1,14c0.63-.61.84-0.57,2.14-0.31a2.39,2.39,0,0,1-.59,1.79C54.81,17,53.89,18.47,53,19.92a12.85,12.85,0,0,0-.67,1.29c0.84,0.46,2.06-.27,2.69.76a2.66,2.66,0,0,1-2.06,1A3.54,3.54,0,0,0,50.07,25c-1.39,2.78-2.9,5.57-4.33,8.35a10.52,10.52,0,0,0-1.22,4.5A2.68,2.68,0,0,0,44.94,39.64Z"/><path class="cls-1" d="M68.77,30.6a3.44,3.44,0,0,0,1.43-1.33,30.71,30.71,0,0,1,2.19-2.78c0.92-1,2.1-1,3.31,0-0.29.53-.59,1.14-0.92,1.75A33,33,0,0,0,71.54,35a4.64,4.64,0,0,0-.29,2.44c0.38-.19.67-0.23,0.92-0.38A3.92,3.92,0,0,0,73,36.51c4.87-3.7,8.82-6.56,13.69-10.3,0.46-.31.88-0.61,1.64-1.14a2.48,2.48,0,0,1-.25,1,15.31,15.31,0,0,1-1.39,1.41c-1.43,1.26-2,1.56-3.4,2.86S80.4,33,79,34.45a31.17,31.17,0,0,1-4.7,3.82,6.79,6.79,0,0,1-3.86,1c-1.93-.11-3-1-3.11-2.78a7.4,7.4,0,0,1,0-1c-0.54.5-.8,0.8-1.13,1.07-1.09.91-2.18,1.87-3.36,2.67a8.27,8.27,0,0,1-6.17,1.22c-2-.34-2.85-1.3-2.6-3.13a5.3,5.3,0,0,1,.5-1.95,24.28,24.28,0,0,1,6-8.16,10.63,10.63,0,0,1,5.21-2.56,7,7,0,0,1,2.19,0,2,2,0,0,1,1.93,2.06A13.7,13.7,0,0,1,69.44,29,10.31,10.31,0,0,1,68.77,30.6ZM58.7,38.42c0.42-.15.75-0.31,1.13-0.46a15.75,15.75,0,0,0,8.06-9.57A5.39,5.39,0,0,0,68,26.75a1.14,1.14,0,0,0-.88-1.11,5.77,5.77,0,0,0-2.73,1.41,19.74,19.74,0,0,0-6,9.53A1.86,1.86,0,0,0,58.7,38.42Z"/><path class="cls-1" d="M82.76,36.21a10.2,10.2,0,0,0,1.09-.69c1.93-1.37,3.78-2.78,5.71-4.08a30.54,30.54,0,0,1,3.69-2,5.09,5.09,0,0,1,1.64-.53c1.47-.19,2.48.5,2.48,1.87s-0.3,2.82-.46,4.23l-0.3,2.25A13.86,13.86,0,0,0,98,36.32c3.82-3.43,7.64-6.86,11.42-10.3,1-.88,1.89-1.79,2.86-2.67a2,2,0,0,1,1.89-.72,6.4,6.4,0,0,1-.42,1.07c-1,1.15-1.89,2.25-2.9,3.39a90.72,90.72,0,0,1-8.65,9A31.49,31.49,0,0,1,99,38.42a5.26,5.26,0,0,1-3.31.88c-1.64-.11-2.44-0.8-2.35-2.29A32.33,32.33,0,0,1,94,33c0.13-.76.38-1.49,0.63-2.48a8.94,8.94,0,0,0-1.22.53c-1.34,1.07-2.69,2.1-4,3.17s-2.73,2.4-4.16,3.51a10,10,0,0,1-2.81,1.56,4.76,4.76,0,0,1-2.31.08,1.5,1.5,0,0,1-1.55-1.72,14.38,14.38,0,0,1,.54-3,36.71,36.71,0,0,1,4.12-8.85A103.9,103.9,0,0,1,94.18,11a28.6,28.6,0,0,1,4-3.62,7.58,7.58,0,0,1,2.77-1.3c2.1-.5,3.4.61,3,2.52A10.83,10.83,0,0,1,102.75,12a49.73,49.73,0,0,1-13.23,15.1c-1,.69-2.06,1.22-3.11,1.87a3.14,3.14,0,0,0-1.09.92c-1,1.95-1.84,3.93-2.73,5.91A1.85,1.85,0,0,0,82.76,36.21ZM101.49,7.57A19.66,19.66,0,0,0,99.6,9.25a29.54,29.54,0,0,0-2.77,3.2c-2.85,4.12-5.67,8.24-8.48,12.4a4.43,4.43,0,0,0-.25.76,3.24,3.24,0,0,0,.71-0.5A78.11,78.11,0,0,0,99.51,13.6a24.43,24.43,0,0,0,1.72-2.78A4,4,0,0,0,101.49,7.57Z"/></svg>