<svg id="Layer_1" data-name="Layer 1" xmlns="http://www.w3.org/2000/svg" viewBox="0 0 429.27 43.56"><defs><style>.cls-1{fill:#fff;}</style></defs><path class="cls-1" d="M20.12,9.3a9.26,9.26,0,0,0-2.84,2.26,55.49,55.49,0,0,0-8.4,11.35,38.68,38.68,0,0,0-4.29,9.62,13.94,13.94,0,0,0-.31,2.84,2,2,0,0,0,.92,1.92A3.82,3.82,0,0,0,7,36.83l6.82-3.14A12,12,0,0,1,15.29,33a1,1,0,0,1,.77.19,1.38,1.38,0,0,1-.11,1,1.76,1.76,0,0,1-.77.73c-2.34,1.3-4.68,2.65-7.06,3.87a7.36,7.36,0,0,1-4.06.54,4.17,4.17,0,0,1-4-5.06A24.21,24.21,0,0,1,2.52,27a51.52,51.52,0,0,1,10-14.57,32.74,32.74,0,0,1,4-3.34,8,8,0,0,1,2.91-1.3,3.22,3.22,0,0,1,4,2.38,5.93,5.93,0,0,1,0,3.37,25.14,25.14,0,0,1-4.06,7.71c-0.77,1-1.11,1.07-2.61.57,0.19-.42.34-0.84,0.54-1.23l3.26-6a5.88,5.88,0,0,0,.54-3.34A2.39,2.39,0,0,0,20.12,9.3Z"/><path class="cls-1" d="M31.7,26.94c0.69-.27,1.23-0.42,1.76-0.65,3-1.3,2.76-.61,5.37-2.57A7.79,7.79,0,0,1,40.21,23a0.94,0.94,0,0,1,.12,1.5,9.43,9.43,0,0,1-1.84,1.65c-3.07,2.11-3.11,1.92-6.79,3a16,16,0,0,1-.31,2.26,17.57,17.57,0,0,1-2.76,6.17,4.54,4.54,0,0,1-4.64,2,3.94,3.94,0,0,1-3.72-3.49,8.69,8.69,0,0,1,.12-3,28.81,28.81,0,0,1,1.42-4.79,11,11,0,0,1,4.79-5.64,5.64,5.64,0,0,1,2.72-.8,2.13,2.13,0,0,1,2.42,2.07,16.79,16.79,0,0,1-.08,2C31.62,26.21,31.7,26.48,31.7,26.94ZM24.87,37.33a14.48,14.48,0,0,0,1.07-1.23c0.8-1.46,1.57-3,2.26-4.45,0.58-1.27,1-2.57.19-3.87,1.46-1.42,1.65-2.3.8-4a7.34,7.34,0,0,0-2,2.19,21.46,21.46,0,0,0-3.07,8.51A3.8,3.8,0,0,0,24.87,37.33Z"/><path class="cls-1" d="M88.64,23.18a2.4,2.4,0,0,1-1.11,1.69c-4.76,4-5.25,4.83-8,6.9a68.88,68.88,0,0,1-5.83,4.1,9.39,9.39,0,0,1-4.95,1.53,8.62,8.62,0,0,1-1.92-.31,2,2,0,0,1-1.53-1.92,10.28,10.28,0,0,1,.31-2.68,21.21,21.21,0,0,1,6.94-9.82,4.61,4.61,0,0,1,3.3-1.19c1.73,0.08,2.26.84,1.5,2.42a10.75,10.75,0,0,1-3.22,4.26,22.39,22.39,0,0,1-3,2,2.17,2.17,0,0,0-1.19,1.46,4.67,4.67,0,0,0-.15,3.22,1.84,1.84,0,0,0,1.76-.38,49.12,49.12,0,0,0,4.26-2.68c4.49-3.3,2.72-1.57,7.25-4.91,1.3-1,2.65-1.84,3.95-2.76A14.82,14.82,0,0,1,88.64,23.18Zm-12.73-.69a5.36,5.36,0,0,0-2.49,2.38c-1.38,1.76-1.5,2-1.69,3.18a8.75,8.75,0,0,0,3.91-3.72A1.71,1.71,0,0,0,75.91,22.49Z"/><path class="cls-1" d="M112.91,30.85c1-2.57,2.84-4.64,2.45-7.67a2.66,2.66,0,0,0-1.23.42,15.52,15.52,0,0,0-2.19,2.57A31.09,31.09,0,0,0,108.84,34a4.13,4.13,0,0,0,0,3,2.92,2.92,0,0,0,2-.88,70.9,70.9,0,0,0,8.82-7c3.3-3,2.76-2.26,6.06-5.29a2.84,2.84,0,0,1,1.84-1.07,4.11,4.11,0,0,1-.46,1c-5.6,6.13-7.21,8.63-14,13.53a10.07,10.07,0,0,1-3.6,1.84,5.62,5.62,0,0,1-3.18-.15A3.29,3.29,0,0,1,104,35.72a7.92,7.92,0,0,1,.23-1.92,22.39,22.39,0,0,1,4.29-8.4,11.4,11.4,0,0,1,3.64-2.84,5,5,0,0,1,3-.5c1.34,0.15,2,.88,1.76,2.15a17.11,17.11,0,0,1-2.26,6A1.27,1.27,0,0,1,112.91,30.85Z"/><path class="cls-1" d="M142.93,23.18a2.4,2.4,0,0,1-1.11,1.69c-4.76,4-5.25,4.83-8,6.9a68.88,68.88,0,0,1-5.83,4.1A9.39,9.39,0,0,1,123,37.4a8.62,8.62,0,0,1-1.92-.31,2,2,0,0,1-1.53-1.92,10.28,10.28,0,0,1,.31-2.68,21.21,21.21,0,0,1,6.94-9.82,4.61,4.61,0,0,1,3.3-1.19c1.73,0.08,2.26.84,1.5,2.42a10.75,10.75,0,0,1-3.22,4.26,22.39,22.39,0,0,1-3,2,2.17,2.17,0,0,0-1.19,1.46,4.67,4.67,0,0,0-.15,3.22,1.84,1.84,0,0,0,1.76-.38,49.12,49.12,0,0,0,4.26-2.68c4.49-3.3,2.72-1.57,7.25-4.91,1.3-1,2.65-1.84,3.95-2.76A14.82,14.82,0,0,1,142.93,23.18Zm-12.73-.69a5.36,5.36,0,0,0-2.49,2.38c-1.38,1.76-1.5,2-1.69,3.18a8.75,8.75,0,0,0,3.91-3.72A1.71,1.71,0,0,0,130.2,22.49Z"/><path class="cls-1" d="M141.89,34.34a4.81,4.81,0,0,0,2.64-1c1.5-1,5.41-4.56,6.79-5.68s2.68-2.38,4-3.56a1.72,1.72,0,0,1,1.88-.58,4,4,0,0,1-.61,1.07c-2.26,2.3-6.94,7.13-9.32,9.32a8.8,8.8,0,0,1-6.71,2.42c-2.19-.15-3.3-1.23-3.41-3.37a10.36,10.36,0,0,1,.58-3.87,39.93,39.93,0,0,1,4.56-9.47A81.91,81.91,0,0,1,148.64,11a41.49,41.49,0,0,1,6.06-5.83,9.66,9.66,0,0,1,3.95-2c2.76-.5,4.06.77,3.53,3.49a6.08,6.08,0,0,1-.92,2.3,24.61,24.61,0,0,1-12.81,10.12,4.19,4.19,0,0,0-2.53,2A46,46,0,0,0,142,29.31c-0.27.84-.42,1.72-0.61,2.61A3.4,3.4,0,0,0,141.89,34.34Zm6.56-16.91a27.71,27.71,0,0,0,10.08-7.55A7.6,7.6,0,0,0,160,6.46a2.1,2.1,0,0,0-.27-1.84C157,5.66,151.59,11.79,148.45,17.43Z"/><path class="cls-1" d="M172.6,23.18a2.4,2.4,0,0,1-1.11,1.69c-4.76,4-5.25,4.83-8,6.9a68.88,68.88,0,0,1-5.83,4.1,9.39,9.39,0,0,1-4.95,1.53,8.62,8.62,0,0,1-1.92-.31,2,2,0,0,1-1.53-1.92,10.28,10.28,0,0,1,.31-2.68,21.21,21.21,0,0,1,6.94-9.82,4.61,4.61,0,0,1,3.3-1.19c1.73,0.08,2.26.84,1.5,2.42a10.75,10.75,0,0,1-3.22,4.26,22.39,22.39,0,0,1-3,2,2.17,2.17,0,0,0-1.19,1.46,4.67,4.67,0,0,0-.15,3.22,1.84,1.84,0,0,0,1.76-.38,49.12,49.12,0,0,0,4.26-2.68c4.49-3.3,2.72-1.57,7.25-4.91,1.3-1,2.65-1.84,3.95-2.76A14.82,14.82,0,0,1,172.6,23.18Zm-12.73-.69a5.36,5.36,0,0,0-2.49,2.38c-1.38,1.76-1.5,2-1.69,3.18a8.75,8.75,0,0,0,3.91-3.72A1.71,1.71,0,0,0,159.88,22.49Z"/><path class="cls-1" d="M169.81,36.83a2.47,2.47,0,0,0,2-1,15.42,15.42,0,0,0,3.91-7.9,2.23,2.23,0,0,0-.46-1.69c-0.38-.69-0.11-1.07.61-1.3a2,2,0,0,1,1.88.27,5.52,5.52,0,0,0,4.45.65,67.18,67.18,0,0,0,9.16-2.42c0.81-.27,1.31.15,2.08-0.19,0.27-.15.68-1.23,1-1.3a0.66,0.66,0,0,1,.61.11,1.09,1.09,0,0,1,.11.77,2.32,2.32,0,0,1-.69.8c-0.46.27-.92,0.54-1.42,0.77a55,55,0,0,1-11.85,3.37c-1,.15-2,0.11-3.07.19l-0.34,2.11a15,15,0,0,1-2.65,6A6.62,6.62,0,0,1,170.73,39a5.7,5.7,0,0,1-2.8-.27,2.58,2.58,0,0,1-1.84-2.42,12.89,12.89,0,0,1,.23-3.22,37.86,37.86,0,0,1,4.87-12A64.45,64.45,0,0,1,188.48,2.59,27.21,27.21,0,0,1,192,.52a5,5,0,0,1,3-.46,1.93,1.93,0,0,1,1.76,2.42A8,8,0,0,1,196.34,4a7,7,0,0,1-.65,1.46,43.25,43.25,0,0,1-17,17.25,11.75,11.75,0,0,1-4.49,1.65,1.41,1.41,0,0,0-1.15.73,21.89,21.89,0,0,0-3.41,9.51A10.91,10.91,0,0,0,169.81,36.83ZM193.92,2a1.61,1.61,0,0,0-.54.11,12.16,12.16,0,0,0-1.61,1.15,70.67,70.67,0,0,0-16,17.91,3.63,3.63,0,0,0-.38.88,24.69,24.69,0,0,0,4.45-2.45A41.64,41.64,0,0,0,191.51,8.11a34.9,34.9,0,0,0,2.26-4.26A1.93,1.93,0,0,0,193.92,2Z"/><path class="cls-1" d="M196.88,25.44c-2.34-.19-5,0.08-6-0.88a2.52,2.52,0,0,1-1.07-3.26,15.38,15.38,0,0,1,.73-1.84,11.54,11.54,0,0,1,2.48-3,7.11,7.11,0,0,1,2-1.31,5.68,5.68,0,0,1,2.19-.61c1.76-.08,2.57,1,2.07,2.65a8.75,8.75,0,0,1-1,2.11c-1.65,2.61-1.14,1.57-2.87,4.29,0.23,0,.54.11,0.84,0.15a21.06,21.06,0,0,1,2.68.11c1.57,0.31,2.11,1.23,1.53,2.72-0.31.84-.77,1.65-1.15,2.45s-0.65,1.38-.92,2.11a16.24,16.24,0,0,0-.5,1.8,10.07,10.07,0,0,0,1.38-.61c2.61-1.61,7.17-4.64,9.74-6.29l3.68-2.26a1,1,0,0,1,1.3,0,1.23,1.23,0,0,1-.73,1.11c-1,.73-1.92,1.42-2.84,2.19-2,1.61-3.87,3.18-7.82,6.21a9.9,9.9,0,0,1-4.6,2.61,6,6,0,0,1-3.68-.19A2.06,2.06,0,0,1,193.09,33a16,16,0,0,1,2.26-5Zm-3.57-3c0.72-.2,3.09-2.71,3.52-3.55a4.72,4.72,0,0,0,.31-0.78,3.54,3.54,0,0,0,.19-2.11,4.84,4.84,0,0,0-3.53,2.89C192.77,20.63,193,21.7,193.32,22.49Z"/><path class="cls-1" d="M219.46,27.89a3.28,3.28,0,0,0,1.3-1.34,30.73,30.73,0,0,1,2-2.8c0.84-1,1.92-1,3,0-0.27.54-.54,1.15-0.84,1.76a34.7,34.7,0,0,0-3,6.83,5.12,5.12,0,0,0-.27,2.45c0.34-.19.61-0.23,0.84-0.38a3.62,3.62,0,0,0,.77-0.58c4.45-3.72,8.05-6.59,12.5-10.35,0.42-.31.8-0.61,1.49-1.15a2.7,2.7,0,0,1-.23,1,14.85,14.85,0,0,1-1.27,1.42c-1.3,1.27-1.8,1.57-3.11,2.88s-2.65,2.76-3.95,4.18a29.28,29.28,0,0,1-4.29,3.83,5.78,5.78,0,0,1-3.53,1,2.67,2.67,0,0,1-2.84-2.8,8.42,8.42,0,0,1,0-1c-0.5.5-.73,0.81-1,1.07A40.34,40.34,0,0,1,214,36.6a7,7,0,0,1-5.64,1.23c-1.84-.35-2.61-1.3-2.38-3.15a5.81,5.81,0,0,1,.46-2A24.39,24.39,0,0,1,212,24.52,9.36,9.36,0,0,1,216.74,22a5.76,5.76,0,0,1,2,0A1.9,1.9,0,0,1,220.49,24a14.59,14.59,0,0,1-.42,2.26A11,11,0,0,1,219.46,27.89Zm-9.2,7.86c0.38-.15.69-0.31,1-0.46a15.56,15.56,0,0,0,7.36-9.62,6,6,0,0,0,.11-1.65,1.14,1.14,0,0,0-.81-1.11,5.11,5.11,0,0,0-2.49,1.42A20.21,20.21,0,0,0,210,33.91,2,2,0,0,0,210.26,35.76Z"/><path class="cls-1" d="M234.91,34.22a7.76,7.76,0,0,0,1.27-.61c1.11-.88,2.26-1.76,3.3-2.76,2.53-2.42,5-4.95,7.52-7.4a8.25,8.25,0,0,1,1.11-.92,0.82,0.82,0,0,1,.61.19,0.47,0.47,0,0,1,.08.5,8.39,8.39,0,0,1-.73,1c-2.57,3-5.14,6.1-7.78,9.09a16,16,0,0,1-2.76,2.3,5.5,5.5,0,0,1-3.95.77,2.48,2.48,0,0,1-2.34-2.3,9.09,9.09,0,0,1,.34-4.06,50.85,50.85,0,0,1,3.84-9l0.8-1.69c-1.76-.15-3.37,1.3-4.91,0a1.49,1.49,0,0,1,1.3-1.23,29.26,29.26,0,0,1,3.6-.92,2.94,2.94,0,0,0,2.34-1.65c1.07-1.8,2.22-3.57,3.37-5.29a11.32,11.32,0,0,1,1.34-1.69c0.58-.61.77-0.58,2-0.31a2.58,2.58,0,0,1-.54,1.8c-0.77,1.46-1.61,3-2.38,4.41a14,14,0,0,0-.61,1.3c0.77,0.46,1.88-.27,2.45.77a2.34,2.34,0,0,1-1.88,1,3.27,3.27,0,0,0-2.68,2.07c-1.27,2.8-2.64,5.6-3.95,8.4a11.4,11.4,0,0,0-1.11,4.52A2.92,2.92,0,0,0,234.91,34.22Z"/><path class="cls-1" d="M263.74,23.18a2.4,2.4,0,0,1-1.11,1.69c-4.76,4-5.25,4.83-8,6.9a68.88,68.88,0,0,1-5.83,4.1,9.39,9.39,0,0,1-4.95,1.53,8.62,8.62,0,0,1-1.92-.31,2,2,0,0,1-1.53-1.92,10.28,10.28,0,0,1,.31-2.68,21.21,21.21,0,0,1,6.94-9.82,4.61,4.61,0,0,1,3.3-1.19c1.73,0.08,2.26.84,1.5,2.42a10.75,10.75,0,0,1-3.22,4.26,22.39,22.39,0,0,1-3,2A2.17,2.17,0,0,0,245,31.58a4.67,4.67,0,0,0-.15,3.22,1.84,1.84,0,0,0,1.76-.38,49.12,49.12,0,0,0,4.26-2.68c4.49-3.3,2.72-1.57,7.25-4.91,1.3-1,2.65-1.84,3.95-2.76A14.82,14.82,0,0,1,263.74,23.18ZM251,22.49a5.36,5.36,0,0,0-2.49,2.38c-1.38,1.76-1.5,2-1.69,3.18a8.75,8.75,0,0,0,3.91-3.72A1.71,1.71,0,0,0,251,22.49Z"/><path class="cls-1" d="M286.85,33.13L285,34.71a4.43,4.43,0,0,1-3.3.84,1.89,1.89,0,0,1-1.8-1.67,7.93,7.93,0,0,1-.09-1.45,15.38,15.38,0,0,1,2.33-7.13,2.87,2.87,0,0,1,1.14-1.15,1.48,1.48,0,0,1,1.15,0,0.82,0.82,0,0,1,.22,1.1,12.47,12.47,0,0,0-.48,1.36c-0.4,1.32-.79,2.6-1.1,3.92a15.4,15.4,0,0,0-.26,2.73,11,11,0,0,0,1.23-.84,17.54,17.54,0,0,0,3.65-4.4,2,2,0,0,1,1.54-1.23c1.32-.13,1.94.53,1.72,1.8-0.13.88-.44,1.72-0.53,2.6a8.76,8.76,0,0,0,.13,2.42,1,1,0,0,0,1.85.62,18.11,18.11,0,0,0,2-2.07,24,24,0,0,0,5.15-10.83c0.66-3.43.43-2.33,1-5.81a8,8,0,0,1,.22-1.41,1.2,1.2,0,0,1,1.32-1,1.05,1.05,0,0,1,1.06,1.23c0,1.36.07,2.73,0,4.09a28.26,28.26,0,0,1-.92,6.21A22.82,22.82,0,0,1,298.74,32a18.38,18.38,0,0,1-2.38,2.82,6.05,6.05,0,0,1-4.62,1.89c-2.07,0-3.74-.79-4.49-2.9A3.07,3.07,0,0,0,286.85,33.13Z"/><path class="cls-1" d="M306.61,33.76a12.83,12.83,0,0,0,2.84-2c3.6-3.18,4.37-3,8-6.25,0.69-.61,1.34-1.19,2-1.76a6.38,6.38,0,0,1,1.19-.61,3.94,3.94,0,0,1-.42,1.19c-0.61.8-1.34,1.53-2,2.26-1.88,2.11-.34.5-2.26,2.57-1.42,1.53-3.37,3.41-4.91,4.83a14.49,14.49,0,0,1-2.84,1.84,5.15,5.15,0,0,1-3.3.38,2.32,2.32,0,0,1-2.19-2.61,17.62,17.62,0,0,1,.38-2.8,21.43,21.43,0,0,1,3.3-7.32,4.79,4.79,0,0,1,1.27-1.23,1.16,1.16,0,0,1,1.5,0c0.54,0.34.27,0.84,0.11,1.3-0.5,1.38-1.11,2.76-1.53,4.18-0.46,1.65-.8,3.38-1.23,5.06A6.12,6.12,0,0,0,306.61,33.76Zm7.13-21.24-1,1.42c-0.69,1-1.38,1.88-2.11,2.84a0.88,0.88,0,0,1-.31.42,1.27,1.27,0,0,1-.92.31,1.45,1.45,0,0,1-.42-0.84,1.07,1.07,0,0,1,.19-0.65A33.13,33.13,0,0,1,311,13,2.06,2.06,0,0,1,313.74,12.52Z"/><path class="cls-1" d="M319.45,34.22a7.76,7.76,0,0,0,1.27-.61c1.11-.88,2.26-1.76,3.3-2.76,2.53-2.42,5-4.95,7.51-7.4a8.35,8.35,0,0,1,1.11-.92,0.82,0.82,0,0,1,.61.19,0.47,0.47,0,0,1,.08.5,8.39,8.39,0,0,1-.73,1c-2.57,3-5.14,6.1-7.78,9.09a16,16,0,0,1-2.76,2.3,5.5,5.5,0,0,1-3.95.77,2.48,2.48,0,0,1-2.34-2.3,9.09,9.09,0,0,1,.34-4.06A50.85,50.85,0,0,1,320,21l0.8-1.69c-1.76-.15-3.37,1.3-4.91,0a1.49,1.49,0,0,1,1.3-1.23,29.33,29.33,0,0,1,3.6-.92,2.94,2.94,0,0,0,2.34-1.65c1.07-1.8,2.22-3.57,3.37-5.29a11.32,11.32,0,0,1,1.34-1.69c0.58-.61.77-0.58,2-0.31a2.58,2.58,0,0,1-.54,1.8c-0.77,1.46-1.61,3-2.38,4.41a13.63,13.63,0,0,0-.61,1.3c0.77,0.46,1.88-.27,2.45.77a2.34,2.34,0,0,1-1.88,1,3.27,3.27,0,0,0-2.68,2.07c-1.27,2.8-2.64,5.6-3.95,8.4a11.38,11.38,0,0,0-1.11,4.52A2.92,2.92,0,0,0,319.45,34.22Z"/><path class="cls-1" d="M331.11,33.91a9.24,9.24,0,0,0,1-.69c1.76-1.38,3.45-2.8,5.21-4.1a27.18,27.18,0,0,1,3.37-2,4.39,4.39,0,0,1,1.5-.54,1.78,1.78,0,0,1,2.26,1.88c0,1.42-.27,2.84-0.42,4.26l-0.27,2.26A12.25,12.25,0,0,0,345,34c3.49-3.45,7-6.9,10.43-10.35,0.88-.88,1.72-1.8,2.61-2.68a1.78,1.78,0,0,1,1.73-.73,7.15,7.15,0,0,1-.38,1.07c-0.88,1.15-1.73,2.26-2.65,3.41a87.88,87.88,0,0,1-7.9,9,29.09,29.09,0,0,1-2.91,2.38,4.49,4.49,0,0,1-3,.88c-1.5-.12-2.22-0.81-2.15-2.3a35.58,35.58,0,0,1,.58-4.06c0.11-.77.34-1.5,0.58-2.49a7.6,7.6,0,0,0-1.11.54c-1.23,1.07-2.45,2.11-3.64,3.18s-2.49,2.42-3.8,3.53A8.91,8.91,0,0,1,330.8,37a3.93,3.93,0,0,1-2.11.08,1.46,1.46,0,0,1-1.42-1.73,15.66,15.66,0,0,1,.5-3,38.68,38.68,0,0,1,3.76-8.9,104.62,104.62,0,0,1,10-14.84A27.29,27.29,0,0,1,345.18,5a6.66,6.66,0,0,1,2.53-1.3c1.92-.5,3.11.61,2.76,2.53a11.63,11.63,0,0,1-1.11,3.37,48.9,48.9,0,0,1-12.08,15.18c-0.88.69-1.88,1.23-2.84,1.88a2.91,2.91,0,0,0-1,.92c-0.88,2-1.69,3.95-2.49,5.94A1.9,1.9,0,0,0,331.11,33.91Zm17.1-28.8a18.43,18.43,0,0,0-1.72,1.69A29.38,29.38,0,0,0,344,10c-2.61,4.14-5.18,8.28-7.74,12.46a5.08,5.08,0,0,0-.23.77,2.93,2.93,0,0,0,.65-0.5,76.3,76.3,0,0,0,9.78-11.58A24.83,24.83,0,0,0,348,8.38,4.4,4.4,0,0,0,348.21,5.12Z"/><path class="cls-1" d="M387.2,34.76c0.92-.77,1.5-1.27,2.07-1.76,3.87-3.41,5.21-4.22,9-7.59a22,22,0,0,1,1.8-1.5,4.76,4.76,0,0,1,1.11-.38,1.19,1.19,0,0,1-.46,1.34c-1.11,1.19-2.22,2.34-3.3,3.53-2.45,2.57-2.34,2.53-4.83,5a28.78,28.78,0,0,1-3.26,2.84,4.54,4.54,0,0,1-3.72.81,2.28,2.28,0,0,1-2-2,11.13,11.13,0,0,1,0-4.64c0.11-.42.19-0.88,0.34-1.61-0.54.34-.88,0.54-1.19,0.77-1,.8-2,1.65-3.11,2.38a6.52,6.52,0,0,1-4.6,1.07,2.33,2.33,0,0,1-2.3-3,6,6,0,0,1,.31-1.19,17.74,17.74,0,0,1,3.72-6.1,5.23,5.23,0,0,1,1.65-1,2.8,2.8,0,0,1,1.11.08,2,2,0,0,1-.42,1.92c-0.77,1.69-1.57,3.37-2.3,5.06a2.75,2.75,0,0,0-.23,2.15,3.29,3.29,0,0,0,2-.81c1.54-1.11,3-2.3,4.52-3.49,1-.81,2-1.69,3-2.57a2.63,2.63,0,0,1,2.34-.65,1.13,1.13,0,0,1,1,1.53,10.45,10.45,0,0,1-.54,1.88c-0.46,1.38-1,2.72-1.42,4.06A11.43,11.43,0,0,0,387.2,34.76Z"/><path class="cls-1" d="M415.67,20.55A2.12,2.12,0,0,1,414.55,22c-1.28.92-2.57,1.85-3.89,2.74-1.79,1.24-3.61,2.48-5.47,3.66a2.08,2.08,0,0,0-1.11,2,15.42,15.42,0,0,1-1.82,8.25,11.57,11.57,0,0,1-2.13,3,6.37,6.37,0,0,1-3.45,1.79,6.49,6.49,0,0,1-1.08.12c-1.66,0-2.5-.72-2.63-2.13a8.62,8.62,0,0,1,.54-3.58,12.28,12.28,0,0,1,2.67-4.09,24.54,24.54,0,0,1,3-2.91,2.53,2.53,0,0,0,1.11-2.36,20.71,20.71,0,0,1,0-3.23,7.28,7.28,0,0,1,2.94-5.62,7,7,0,0,1,1.66-1,1.62,1.62,0,0,1,1.62,0c-1.42,1.47-2.64,3-2.87,5a12.61,12.61,0,0,0,.27,3.69,13.06,13.06,0,0,0,2.47-1.27c0.78-.43,1.55-0.89,2.33-1.36L411,23.4c0.78-.49,1.52-1,2.3-1.44A8.74,8.74,0,0,1,415.67,20.55ZM400.06,32.8a13.15,13.15,0,0,0-3.75,4.56A9.19,9.19,0,0,0,395.23,41a1.82,1.82,0,0,0,.37,1.44,2.87,2.87,0,0,0,2-1.61A17.5,17.5,0,0,0,400.06,32.8Z"/><path class="cls-1" d="M72.6,24a8.44,8.44,0,0,1-1,1.26s-7.44,7.4-9.76,8.74-3.39,1.92-4.54,1.6a1.89,1.89,0,0,1-1.36-2.23c0.11-1.71.76-5.13,0.76-5.13a3.5,3.5,0,0,0-.94.67c-1,1-2.37,3.77-4.54,6.35a5.69,5.69,0,0,1-1.93,1.45,4.9,4.9,0,0,1-1.59.49c-1.53.09-2.11-.69-1.78-2.4,0.16-.92.47-1.8,0.67-2.67,0.1-.48,1.71-4.94,1.8-5.66a10.79,10.79,0,0,0-3.23,2.64C43.56,31,41.63,33.8,40,35.67c-0.59.69-1.19,1.35-1.82,2a2.67,2.67,0,0,1-2.8.68,1.4,1.4,0,0,1-1-1.79,7.49,7.49,0,0,1,.16-0.88A49.32,49.32,0,0,1,39.08,24.3,2.27,2.27,0,0,1,40.41,23a1.41,1.41,0,0,1,1.07.25,1.4,1.4,0,0,1,.09,1C41.26,25.26,40.38,28,40,29c-0.51,1.44-.3.76-0.81,2.21a14.32,14.32,0,0,0-.51,1.44c0.56-.53,1-0.87,1.83-1.78s1.7-1.93,3.17-3.28a16.83,16.83,0,0,1,3.83-2.93,3.25,3.25,0,0,1,1.91-.49A1.48,1.48,0,0,1,51,25.87c0,0.71-1.22,5.68-1.28,6.4l-0.2,1.08a1.85,1.85,0,0,1,.29.27,38.32,38.32,0,0,0,3-3.71,18.27,18.27,0,0,1,3.79-4.07,5,5,0,0,1,1.91-.53c2.06-.26.56,3.19,0.41,4.54s-0.3,2.05.18,2.37c0.79,0.21,1.59-.39,2.83-1.17s6.66-4.66,8.88-6.35c1-.7,1-0.61,1-0.9a1,1,0,0,1,.55-0.37c0.18,0,.2-0.25.31-0.1A0.89,0.89,0,0,1,72.6,24Z"/><path class="cls-1" d="M414.47,34.33c0.16-1.58,1.17-2.88,2.28-2.92a2.73,2.73,0,0,1,1.24.35,0.77,0.77,0,0,1,.36,1,5.61,5.61,0,0,1-1.57,2.91l-0.1.09a1.33,1.33,0,0,1-1.62.25C414.46,35.69,414.55,35,414.47,34.33Zm4.68-9.19c0.19-.62.39-1.55,0.71-2.4a110.15,110.15,0,0,1,5.85-12.38,15.11,15.11,0,0,1,1.2-1.73,1.3,1.3,0,0,1,1.2-.57c1.1,0,1.41.54,0.92,1.81-1.37,3.37-2.8,6.77-4.22,10.13-0.56,1.39-1.15,2.75-1.72,4.15a12.25,12.25,0,0,1-1.95,3.44,2.2,2.2,0,0,1-.71.7,1,1,0,0,1-1.42-1,2.9,2.9,0,0,1,0-.47C419.06,26.38,419.12,25.92,419.15,25.14Z"/></svg>